<svg xmlns="http://www.w3.org/2000/svg" viewBox="0 0 720 860"><defs><linearGradient id="bg" x1="0" y1="0" x2="1" y2="1"><stop stop-color="#f4cbd4"/><stop offset="1" stop-color="#d896a7"/></linearGradient><linearGradient id="cream" x1="0" y1="0" x2="1" y2="1"><stop stop-color="#fffaf3"/><stop offset="1" stop-color="#f2e4d2"/></linearGradient><filter id="s"><feDropShadow dx="0" dy="22" stdDeviation="22" flood-color="#542033" flood-opacity=".18"/></filter></defs><rect width="720" height="860" fill="url(#bg)"/><circle cx="620" cy="110" r="130" fill="#fff" opacity=".18"/><circle cx="90" cy="720" r="180" fill="#7b2841" opacity=".12"/><g filter="url(#s)"><ellipse cx="360" cy="680" rx="245" ry="62" fill="#6e4450" opacity=".35"/><path d="M176 396c0-104 84-188 188-188s188 84 188 188v271H176V396Z" fill="url(#cream)"/><ellipse cx="364" cy="398" rx="188" ry="77" fill="#fffaf3"/><path d="M176 510c45 24 90 35 135 35 59 0 95-18 145-26 32-5 64 2 96 21v127H176V510Z" fill="#f2b9c5" opacity=".75"/><path d="M176 595c53 17 102 23 147 17 67-9 127-39 229-6v61H176v-72Z" fill="#7b2841" opacity=".9"/><path d="M176 445c40 22 82 31 126 28 79-5 129-43 250-11v64c-33-18-65-26-97-22-49 7-87 25-148 25-44 0-88-10-131-31v-53Z" fill="#d79aa9" opacity=".6"/></g><g><circle cx="292" cy="275" r="34" fill="#b53352"/><circle cx="350" cy="248" r="39" fill="#cb3b5c"/><circle cx="410" cy="275" r="35" fill="#a52846"/><circle cx="470" cy="308" r="27" fill="#d34a67"/><path d="M350 210c16-35 34-50 55-46-7 28-25 45-55 46Z" fill="#70836d"/><path d="M395 233c28-25 51-31 70-17-16 24-39 30-70 17Z" fill="#80927e"/></g><g fill="none" stroke="#fff" stroke-linecap="round" opacity=".7"><path d="M82 128c63 35 110 27 149-24" stroke-width="3"/><path d="M509 730c44 35 88 42 132 20" stroke-width="3"/></g></svg>