<svg xmlns="http://www.w3.org/2000/svg" viewBox="0 0 720 820"><defs><linearGradient id="bg" x1="0" y1="0" x2="1" y2="1"><stop stop-color="#e7c1c8"/><stop offset="1" stop-color="#bd7487"/></linearGradient><filter id="s"><feDropShadow dx="0" dy="20" stdDeviation="18" flood-color="#542033" flood-opacity=".18"/></filter></defs><rect width="720" height="820" fill="url(#bg)"/><circle cx="110" cy="110" r="140" fill="#fff" opacity=".13"/><g filter="url(#s)"><path d="M130 620c70-230 167-348 291-354 82-4 139 45 169 147 24 81 26 157 7 228Z" fill="#fff8ef"/><path d="M166 565c86 42 172 49 257 21 73-24 131-25 174-3l-7 58-460-21Z" fill="#7b2841" opacity=".88"/><path d="M211 464c70 28 141 32 211 13 75-21 136-21 182 2l-8 86c-43-21-100-19-172 5-84 28-171 21-260-20Z" fill="#f2b9c5"/><path d="M262 358c57 16 115 16 174-2 65-20 120-18 166 7l-6 99c-43-19-99-18-168 3-71 21-143 17-217-13Z" fill="#fffdf8"/><circle cx="419" cy="257" r="40" fill="#cb3b5c"/><circle cx="475" cy="282" r="34" fill="#a52b47"/><circle cx="361" cy="288" r="31" fill="#da5871"/><path d="M416 219c17-40 41-56 70-49-9 34-32 50-70 49Z" fill="#80927e"/></g><path d="M97 687c170 35 348 36 535 4" fill="none" stroke="#fff" stroke-width="3" opacity=".35"/></svg>